<?xml version="1.0" encoding="utf-8"?>
<!-- Generator: Avocode 2.5.3 - http://avocode.com -->
<svg height="15" width="15" xmlns:xlink="http://www.w3.org/1999/xlink" xmlns="http://www.w3.org/2000/svg" viewBox="0 0 15 15">
    <path stroke-width="1" stroke="#abb2b9" fill="#ffffff" fill-rule="evenodd" d="M 0.48 14.5 C 0.48 14.5 0.48 0.5 0.48 0.5 C 0.48 0.5 14.51 0.5 14.51 0.5 C 14.51 0.5 14.51 14.5 14.51 14.5 C 14.51 14.5 0.48 14.5 0.48 14.5 Z M 14.02 0.99 C 14.02 0.99 14.02 14.01 14.02 14.01 C 14.02 14.01 0.97 14.01 0.97 14.01 C 0.97 14.01 0.97 0.99 0.97 0.99 C 0.97 0.99 14.02 0.99 14.02 0.99 M 15 0.01 C 15 0.01 -0.01 0.01 -0.01 0.01 C -0.01 0.01 -0.01 14.99 -0.01 14.99 C -0.01 14.99 15 14.99 15 14.99 C 15 14.99 15 0.01 15 0.01 C 15 0.01 15 0.01 15 0.01 Z" />
</svg>