<?xml version="1.0" encoding="utf-8"?>
<!-- Generator: Avocode 2.5.3 - http://avocode.com -->
<svg height="17" width="17" xmlns="http://www.w3.org/2000/svg" viewBox="0 0 17 17">
    <path fill="#2c3e50" fill-rule="evenodd" d="M 16.99 16.06 C 16.99 16.06 16.29 16.77 16.29 16.77 C 16.29 16.77 8.61 9.09 8.61 9.09 C 8.61 9.09 0.71 17 0.71 17 C 0.71 17 0 16.29 0 16.29 C 0 16.29 7.9 8.38 7.9 8.38 C 7.9 8.38 0.23 0.71 0.23 0.71 C 0.23 0.71 0.94 0 0.94 0 C 0.94 0 8.61 7.67 8.61 7.67 C 8.61 7.67 16.05 0.23 16.05 0.23 C 16.05 0.23 16.76 0.94 16.76 0.94 C 16.76 0.94 9.32 8.38 9.32 8.38 C 9.32 8.38 16.99 16.06 16.99 16.06 Z" />
</svg>