<svg xmlns="http://www.w3.org/2000/svg" width="17" height="17" fill="none">
    <path fill="#fff"
          d="M1.707.293A1 1 0 0 0 .293 1.707L1.707.293zm13.586 16.414a1 1 0 0 0 1.414-1.414l-1.414 1.414zm1.414-15A1 1 0 0 0 15.293.293l1.414 1.414zM.293 15.293a1 1 0 1 0 1.414 1.414L.293 15.293zm0-13.586l7.5 7.5 1.414-1.414-7.5-7.5L.293 1.707zm7.5 7.5l7.5 7.5 1.414-1.414-7.5-7.5-1.414 1.414zm7.5-8.914l-7.5 7.5 1.414 1.414 7.5-7.5L15.293.293zm-7.5 7.5l-7.5 7.5 1.414 1.414 7.5-7.5-1.414-1.414z"/>
</svg>