<svg xmlns="http://www.w3.org/2000/svg" width="23" height="13" fill="none">
    <path fill="#237BEF"
          d="M11.5 0c4.4 0 8.38 2.28 11.32 5.98.24.3.24.73 0 1.03C19.88 10.72 15.89 13 11.5 13 7.1 13 3.12 10.72.18 7.02a.83.83 0 0 1 0-1.03C3.12 2.28 7.11 0 11.5 0zm-.32 11.08c2.92.17 5.33-2.1 5.15-4.88a4.73 4.73 0 0 0-4.51-4.28C8.9 1.75 6.49 4.02 6.67 6.8a4.74 4.74 0 0 0 4.51 4.28zm.15-2.12c1.57.1 2.87-1.13 2.77-2.62a2.55 2.55 0 0 0-2.44-2.3C10.1 3.93 8.8 5.16 8.9 6.65a2.55 2.55 0 0 0 2.43 2.3z"/>
</svg>