<svg xmlns="http://www.w3.org/2000/svg" width="227" height="45" fill="none">
    <path fill="rgba(255,255,255,0.05)" fill-rule="evenodd"
          d="M273.3 8.3h-3.6c-37.3-1.3-72.5-16.9-106.5-32-12.8-5.6-26.1-11.5-39-16.4A252.2 252.2 0 0 0 32-55.8c-11.7 0-23.9-.6-35.7-1.3-19.2-1-39.2-2-57.6-.1-23.4 2.4-46.4 12-68.7 21.3-9.4 3.9-19.1 8-28.6 11.3l-6.2 2.3c-12.1 4.5-27.2 10.1-39.8 8.8-13.8-1.4-22.1-9.2-31-17.4-2.9-2.6-5.8-5.3-9-7.8-15.6-12.6-29.2-13.4-41.5-2.6a61 61 0 0 0-10.2 12c-5 7.5-9.1 13.3-25.1 13.5v-3.3c14.3-.1 17.5-4.8 22.4-12 2.6-3.7 5.6-8 10.7-12.6 13.5-12 28.9-11.1 45.8 2.4a168 168 0 0 1 9 8c8.6 7.9 16.6 15.3 29.2 16.6 11.9 1.2 26.6-4.3 38.4-8.7l6.2-2.3c9.4-3.3 19.1-7.3 28.5-11.2 22.4-9.4 45.7-19 69.5-21.6 18.8-2 38.8-.9 58.2.2 11.7.6 23.9 1.3 35.5 1.2 33.7-.2 64.2 5 93.2 16 13 4.9 26.3 10.8 39.2 16.5 33.7 15 68.6 30.4 105.3 31.6 27.8.8 53-9.3 77.5-19 15.1-6.1 30.8-12.4 47-16 26.5-6.1 57.8.3 93 19l-1.6 2.9c-34.4-18.4-65-24.7-90.7-18.8A313 313 0 0 0 348.5-11c-23.7 9.5-48.2 19.3-75.2 19.3z"
          clip-rule="evenodd"/>
    <path fill="rgba(255,255,255,0.05)" fill-rule="evenodd"
          d="M287 23.2c-38.5 0-76-13.7-112.2-27-9.8-3.6-20-7.3-29.8-10.6a484.8 484.8 0 0 0-109.5-23c-10.4-.9-21.3-2.5-32.9-4-27.7-4-56.3-8.1-81-4.6-19 2.6-37.3 11.4-55 20-8.8 4.2-17.9 8.6-26.9 12.2l-3.8 1.5c-10.5 4.1-22.3 8.9-33.6 7.9s-19.6-7.4-27.6-13.6a91.7 91.7 0 0 0-13.6-9.2c-17.8-9.2-30.3-8.6-43.3 2-4.3 3.5-7.4 6.8-10.1 9.8-7.2 7.7-12 12.8-29.2 11.5l.3-3.2c15.6 1.1 19.5-3 26.5-10.5 2.8-3 6-6.5 10.5-10.2 17.5-14.2 33.4-9.2 46.8-2.3 5 2.6 9.7 6.1 14 9.5 8 6.2 15.6 12 26 13 10.5.8 22-3.7 32-7.8l4-1.5c8.8-3.4 17.9-7.8 26.6-12 17.9-8.7 36.4-17.7 55.9-20.4 25.2-3.5 54 .6 82 4.6 11.5 1.6 22.3 3.2 32.8 4.2a488 488 0 0 1 110.1 23c9.9 3.4 20 7 29.9 10.7 37.9 13.8 77 28.1 116.9 26.6 21.7-.8 42.4-7.7 62.5-14.4l17-5.5c5.3-1.6 10.6-3.8 15.8-6 7.6-3.2 15.5-6.4 23.5-8 28.1-5.6 59.3 7.7 80.6 19.9l-1.7 2.8c-20.7-11.9-51.1-25-78.3-19.5-7.7 1.5-15.4 4.7-22.8 7.8C384-.9 378.7 1.4 373.3 3l-17 5.5C336.2 15.2 315 22.2 293 23.1h-6z"
          clip-rule="evenodd"/>
    <path fill="rgba(255,255,255,0.05)" fill-rule="evenodd"
          d="M295.4 35c-39.4 0-78-12.2-115.6-24-9.4-2.9-19.1-6-28.6-8.7A733.2 733.2 0 0 0 33.7-20.8a2720 2720 0 0 0-37-4.2c-10.4-1-21.2-2.2-31.8-3.5-4.7-.5-9.7-1.4-14.5-2.2-12-2-24.3-4-35.9-2.6-16.6 2-32.4 10.3-47.6 18.4-7.5 4-15.2 8-22.9 11.2l-1.5.6c-9.3 4-19.8 8.4-30.6 7.3-10.3-1-19-6-27.3-11-5.2-3-10.5-6.3-16.2-8.3-18.1-6.6-32.3-5-45.8 5.2-3.3 2.5-6.1 4.9-8.6 7-10.3 8.5-16.4 13.7-35.6 11l.5-3.3c17.7 2.6 22.8-1.7 33-10.2 2.5-2.1 5.4-4.5 8.7-7 14.6-11 29.6-12.8 49-5.8 5.9 2.2 11.4 5.4 16.7 8.6A63 63 0 0 0-187.8 1c10 1 19.7-3.1 29-7l1.5-.7c7.6-3.1 15-7 22.7-11.1 15.5-8.2 31.5-16.7 48.7-18.7 12-1.4 24.6.6 36.8 2.6 5 .9 9.7 1.6 14.4 2.2L-3-28.2c12.2 1.3 24.8 2.6 37.1 4.1A736.4 736.4 0 0 1 180.7 8c39.8 12.5 81 25.3 122.4 23.6 21-.9 41.3-6.7 61-12.3 6.8-2 13.8-4 20.8-5.8 5.1-1.3 10.4-3.3 15.6-5.2 7.2-2.7 14.7-5.5 22.2-6.7 25.7-3.8 55 9.7 75 21.8L496 26C476.4 14.3 448 1 423.2 4.8c-7.2 1-14.5 3.8-21.6 6.5-5.2 1.9-10.6 4-16 5.3-6.9 1.8-13.9 3.8-20.6 5.7a267 267 0 0 1-61.7 12.4c-2.6.2-5.3.2-8 .2z"
          clip-rule="evenodd"/>
    <path fill="rgba(255,255,255,0.05)" fill-rule="evenodd"
          d="M287 48c-40.5 0-81-10-120.4-19.8l-27.1-6.6C96.8 11.6 61.3 4 27.7-1.8a676 676 0 0 1-31-6.5c-28-6.3-57-12.8-82.3-10.2C-100.2-17-114-10-127.1-3-134.6.8-142.2 4.8-150 7.7c-20.5 7.8-35.7 2.1-51.7-3.9-7.3-2.7-14.9-5.5-23.4-7.4-19.8-4.2-34.5 3.9-48.7 11.7-14.1 7.8-28.7 15.8-48 11.9l.7-3.2c18 3.7 31.5-3.7 45.7-11.5 14.8-8.2 30-16.5 51-12C-215.6-5-208-2-200.5.7c16.1 6 30 11.2 49.4 3.9 7.5-2.9 15.1-6.8 22.5-10.6 13.5-7 27.4-14.3 42.7-15.9 25.7-2.6 55 4 83.3 10.4C8.2-9 18.5-6.7 28.3-5 61.9 1 97.5 8.4 140.2 18.4c9 2 18.3 4.4 27.2 6.6C214 36.6 262 48.5 309.2 43.7c18.4-1.9 37-7.9 55-13.7 20.3-6.5 41.3-13.2 62.1-14 20.8-1 46.1 7.3 77.3 25.1l-1.6 2.8c-30.7-17.4-55.4-25.5-75.6-24.7-20.3.8-41.1 7.5-61.2 14-18.2 5.8-37 11.8-55.7 13.7-7.5.8-15 1.1-22.5 1.1z"
          clip-rule="evenodd"/>
    <path fill="rgba(255,255,255,0.05)" fill-rule="evenodd"
          d="M508.1 62C481 49 450 34.5 420 33c-22.3-1.2-45.4 5-67.6 11-16.5 4.5-33.6 9.2-50.3 10.8-46 4.4-92-5.8-136.4-15.6l-29.1-6.3c-30.8-6.3-62.3-12.3-92.7-18l-12.6-2.4c-9.3-1.8-18.8-4-28.8-6.2C-24 .3-51.6-6-76.4-5-90.6-4.3-104 2-117 8.3c-7.3 3.5-14.9 7.1-22.5 9.7-18.2 6-33.7 1.4-50-3.4-8.9-2.6-18-5.3-27.7-6.2-18.9-1.8-34.1 5.6-49 12.7-16.6 8-33.9 16.4-55.7 10.8l.8-3.2c20.7 5.3 36.7-2.4 53.6-10.5 15.1-7.3 30.8-14.9 50.6-13 10 1 19.3 3.7 28.3 6.3 15.9 4.7 30.8 9 48 3.4 7.5-2.5 15-6 22.2-9.5 13.2-6.4 26.8-13 41.7-13.6 25.4-1 53 5.2 79.7 11.3 10 2.3 19.5 4.4 28.7 6.2l12.6 2.4c30.4 5.7 61.9 11.7 92.7 18l29.2 6.3c44.2 9.8 89.9 19.9 135.4 15.5C318.1 50 335 45.4 351.4 41c22.5-6.1 45.8-12.4 68.7-11.2C450.8 31.3 482 46 509.5 59l-1.4 3z"
          clip-rule="evenodd"/>
    <path fill="rgba(255,255,255,0.05)" fill-rule="evenodd"
          d="M514.2 79.9c-7.7-2.8-15.7-5.8-23.3-8.8-26.6-10.1-54.2-20.7-82.3-24.3-24.5-3.2-49.6 2.2-74 7.5a408.3 408.3 0 0 1-40.8 7.3c-45.8 5-91.4-4.2-135.5-13.2a3045 3045 0 0 0-19-3.8c-14.6-3-29.5-5.5-44-8-17.3-2.9-35.3-6-53-9.6l-25.6-5.8C-7.9 15.5-33.5 9.6-57.9 8.3c-16.4-.9-30.9 5-46.2 11.1-5.7 2.3-11.5 4.7-17.4 6.6-19.2 6.4-36.1 2.8-54-1-11.3-2.3-23-4.8-35.3-4.5-17.8.3-32.7 7-47.1 13.5-20 9-38.9 17.4-64 9.8l1-3.1c24 7.2 42.2-1 61.6-9.7 14.7-6.6 30-13.4 48.4-13.8 12.7-.3 24.6 2.3 36 4.7 17.5 3.7 34 7.1 52.3 1 5.8-1.9 11.7-4.2 17.3-6.5 15-6 30.4-12.3 47.6-11.3C-33 6.4-7.4 12.3 17.4 18c8.5 1.9 17.3 4 25.7 5.7 17.5 3.6 35.5 6.7 52.8 9.7 14.5 2.4 29.4 5 44 7.9l19 3.8c43.9 9 89.2 18.1 134.5 13.2 13.4-1.5 27.2-4.4 40.6-7.3 24.5-5.3 50-10.8 75-7.5 28.5 3.6 56.3 14.2 83 24.5 7.7 3 15.6 6 23.3 8.7l-1.1 3z"
          clip-rule="evenodd"/>
    <path fill="rgba(255,255,255,0.05)" fill-rule="evenodd"
          d="M519.8 97.4C503 92.9 486.2 87.4 470 82c-24.5-8.1-49.8-16.5-75.6-21.3-28.6-5.3-56.7.3-84 5.6-14.6 2.9-29.9 5.9-45.1 7.2-61.9 5.4-136-4.9-220.5-30.5l-15.2-4.8C5 30.6-20.1 22.7-44.5 20.8c-16-1.2-31.3 4.3-46 9.5-6.7 2.4-13.7 4.9-20.6 6.7-17.5 4.6-34.5 1.7-51-1.2-14-2.3-28.4-4.8-43-2.8-16.2 2.2-30.1 8.2-43.6 14-22.8 9.6-44.3 18.8-73.2 8.7l1-3c27.8 9.6 48.8.7 71-8.8 13.6-5.8 27.7-11.8 44.3-14.1 15.2-2.1 29.9.4 44 2.8 17 3 32.9 5.7 49.7 1.2 6.8-1.8 13.7-4.2 20.3-6.6 15-5.3 30.6-10.9 47.3-9.6 24.8 1.8 50.2 9.8 74.7 17.5L45.7 40c84 25.5 157.7 35.7 219.2 30.4 15-1.3 30.2-4.3 44.8-7.2 27.6-5.4 56-11 85.2-5.6 26 4.9 51.4 13.3 76 21.4 16.3 5.3 33 10.9 49.8 15.3l-.9 3.2z"
          clip-rule="evenodd"/>
    <path fill="rgba(255,255,255,0.05)" fill-rule="evenodd"
          d="M524.7 114.2c-24.2-5.2-48.2-12.5-71.5-19.5-24-7.3-49-14.8-74-20-34.1-7.2-64.1-1.4-95.9 4.6-9 1.7-18.2 3.5-27.7 5a369.4 369.4 0 0 1-196-22l-11.3-4.8C25.6 47.7 2 37.6-22.3 34-41.7 31-58.9 36-77 41.4c-7.9 2.3-16 4.7-24.4 6.4-16.5 3.4-32.5 1.1-48-1.1-16.4-2.4-33.3-4.8-50.8-.5-14 3.3-26.2 8.5-38 13.4-26 10.8-50.4 21-83.7 8l1.2-3c32 12.5 54.8 3 81.2-8 12-5 24.4-10.2 38.5-13.6 18.1-4.4 35.4-2 52 .5 16 2.2 31 4.4 47 1.2 8.2-1.7 16.3-4.1 24-6.4 17.8-5.2 36.2-10.7 56.3-7.6 24.7 3.8 48.5 14 71.4 23.8L61 59.3a366 366 0 0 0 194.2 21.8c9.5-1.5 18.7-3.3 27.6-5 32.1-6.1 62.4-11.9 97.2-4.6 25.2 5.2 50.1 12.8 74.2 20 23.3 7 47.3 14.3 71.3 19.5l-.7 3.2z"
          clip-rule="evenodd"/>
    <path fill="rgba(255,255,255,0.05)" fill-rule="evenodd"
          d="M528.7 130c-32.2-5.2-64-14.4-94.8-23.3-22.2-6.4-45.1-13-68-18.1-44.4-10-78-3.7-117.3 5.5-25.3 5.9-49.3 8.8-72.2 8.8A228 228 0 0 1 68.8 77.1l-5.3-2.8C40 61.9 15.7 49.2-10.6 45.4c-19.2-2.7-36.5 2-55 7-9 2.4-18.5 4.9-28.1 6.4-14 2.2-25.4 0-37.4-2.5-4.1-.8-8.4-1.7-13-2.4a109 109 0 0 0-52.6 6c-10.7 3.7-20.4 7.8-29.8 11.8-30.8 13.1-57.5 24.4-95.5 7.9l1.3-3c36.8 16 62.8 5 93-7.9 9.4-4 19.2-8.2 30-11.8a112.1 112.1 0 0 1 67.3-3.8c12.2 2.5 22.7 4.6 36.2 2.5 9.4-1.5 18.8-4 27.8-6.4 18-4.8 36.4-9.8 56.2-7C16.7 46 41.2 59 65 71.4l5.3 2.8c51.8 27 110 32.5 177.6 16.7 39.7-9.3 73.6-15.6 118.8-5.5 22.9 5 45.9 11.7 68 18.1 30.8 8.9 62.5 18 94.6 23.3l-.6 3.2z"
          clip-rule="evenodd"/>
</svg>